#!OML:ASF F:\VICON\USERDATA\INSTALL\rory3\rory3.ASF
:FULLY-SPECIFIED
:DEGREES
92
root 15.1756 17.9158 -5.71844 -33.6022 -84.3679 32.335
lowerback 13.6983 2.12871 1.63445
upperback 0.050191 3.01392 -0.56658
thorax -7.52118 1.38011 -2.12158
lowerneck -23.4017 -0.857854 -8.97484
upperneck 30.1385 0.133165 5.47716
head 14.2374 -0.331998 3.76536
rclavicle -4.49005e-014 1.98785e-015
rhumerus -35.5056 -17.1441 -73.2911
rradius 33.4902
rwrist 2.48875
rhand -16.4027 7.57096
rfingers 7.12502
rthumb 9.81164 -22.1804
lclavicle -4.49005e-014 1.98785e-015
lhumerus -35.7289 15.6866 73.1489
lradius 29.9233
lwrist -6.14588
lhand -21.4899 23.654
lfingers 7.12502
lthumb 4.90131 53.5773
rfemur -2.04279 3.88017 14.6368
rtibia 26.8507
rfoot -19.1069 -2.10122
rtoes 1.71009
lfemur -12.7508 -2.93062 -7.20665
ltibia 33.1053
lfoot -0.574634 3.24823
ltoes -19.4006
93
root 15.1625 17.9125 -5.63474 -35.4118 -84.6276 34.071
lowerback 13.7736 2.12322 1.59322
upperback 0.0944414 2.99423 -0.629258
thorax -7.51555 1.37052 -2.16321
lowerneck -23.3238 -0.722305 -8.77437
upperneck 29.8421 0.263711 5.45711
head 14.0775 -0.24319 3.7342
rclavicle -6.13002e-014 9.54166e-015
rhumerus -35.449 -16.4578 -73.6309
rradius 33.6304
rwrist 2.47703
rhand -16.1934 7.64749
rfingers 7.12502
rthumb 10.0136 -22.0943
lclavicle -6.13002e-014 9.54166e-015
lhumerus -35.8196 16.1779 72.6698
lradius 29.6632
lwrist -6.47769
lhand -20.8018 23.6033
lfingers 7.12502
lthumb 5.56567 53.5102
rfemur -1.86244 4.27466 14.4058
rtibia 26.7072
rfoot -18.9872 -2.32747
rtoes 0.789834
lfemur -12.135 -3.96751 -6.58221
ltibia 31.9875
lfoot 0.367823 2.98577
ltoes -18.341
94
root 15.1515 17.9119 -5.54663 -36.3642 -84.9185 34.9947
lowerback 13.7953 2.15865 1.74367
upperback 0.125768 3.06621 -0.608154
thorax -7.48415 1.40086 -2.23955
lowerneck -23.3504 -0.746839 -8.9809
upperneck 29.7482 0.283309 5.56422
head 14.04 -0.238931 3.8142
rclavicle -5.04416e-015 -1.59028e-015
rhumerus -35.2938 -16.5851 -73.6319
rradius 33.5496
rwrist 3.04286
rhand -16.0381 7.80584
rfingers 7.12502
rthumb 10.1634 -21.9287
lclavicle -5.04416e-015 -1.59028e-015
lhumerus -35.9139 16.7536 72.3968
lradius 29.4145
lwrist -7.14381
lhand -20.3986 23.4486
lfingers 7.12502
lthumb 5.95503 53.3449
rfemur -1.75355 4.70152 14.2482
rtibia 26.6021
rfoot -18.9606 -2.36974
rtoes 1.18585
lfemur -11.5765 -4.9717 -5.8962
ltibia 30.8323
lfoot 1.27458 2.74037
ltoes -16.9032
95
root 15.1384 17.9092 -5.45518 -39.5682 -85.1046 38.1612
lowerback 13.7796 2.24775 1.68022
upperback 0.194427 3.17153 -0.61303
thorax -7.39977 1.4558 -2.22638
lowerneck -23.437 -0.803257 -9.23937
upperneck 29.7652 0.27158 5.69307
head 14.0666 -0.255111 3.91161
rclavicle -2.5345e-015 1.59028e-015
rhumerus -35.0291 -16.7877 -73.632
rradius 33.3817
rwrist 3.79762
rhand -16.143 7.94757
rfingers 7.12502
rthumb 10.0622 -21.7919
lclavicle -2.5345e-015 1.59028e-015
lhumerus -35.9232 16.981 72.4082
lradius 29.2238
lwrist -7.52375
lhand -20.5467 23.2362
lfingers 7.12502
lthumb 5.812 53.1365
rfemur -1.67833 4.96462 13.8141
rtibia 26.5505
rfoot -18.9667 -2.3186
rtoes 0.600455
lfemur -10.9687 -5.86682 -5.47985
ltibia 29.6777
lfoot 2.17514 2.59976
ltoes -15.9553
96
root 15.1228 17.9005 -5.36069 -44.1633 -85.1669 42.7755
lowerback 13.7418 2.32189 1.41631
upperback 0.195129 3.2225 -0.675569
thorax -7.3863 1.4891 -2.1522
lowerneck -23.2861 -0.836914 -9.26844
upperneck 29.5652 0.262072 5.5847
head 13.9502 -0.271626 3.86005
rclavicle -1.73937e-014 9.54166e-015
rhumerus -34.927 -16.6864 -73.6634
rradius 33.3221
rwrist 4.32421
rhand -16.0337 7.95827
rfingers 7.12502
rthumb 10.1677 -21.776
lclavicle -1.73937e-014 9.54166e-015
lhumerus -36.0254 17.1365 72.3217
lradius 29.0346
lwrist -7.82011
lhand -20.414 23.103
lfingers 7.12502
lthumb 5.94012 52.9997
rfemur -1.65614 5.2206 13.2108
rtibia 26.5184
rfoot -18.9669 -2.40163
rtoes -0.496585
lfemur -10.3994 -6.70181 -5.23721
ltibia 28.5627
lfoot 2.93359 2.49229
ltoes -15.6705
97
root 15.1105 17.8881 -5.26613 -45.3964 -85.3077 44.039
lowerback 13.7074 2.32485 1.48738
upperback 0.182784 3.23485 -0.712749
thorax -7.37347 1.49224 -2.23264
lowerneck -23.2728 -0.924031 -9.28321
upperneck 29.4816 0.189837 5.44659
head 13.9203 -0.321319 3.78968
rclavicle 1.85367e-014 -6.36111e-015
rhumerus -34.897 -16.4079 -73.7239
rradius 33.2731
rwrist 4.47965
rhand -15.9021 8.02702
rfingers 7.12502
rthumb 10.2946 -21.701
lclavicle 1.85367e-014 -6.36111e-015
lhumerus -36.1109 17.2987 72.1674
lradius 28.8763
lwrist -8.11585
lhand -19.9489 23.0828
lfingers 7.12502
lthumb 6.38912 52.9664
rfemur -1.67328 5.41292 12.9252
rtibia 26.5436
rfoot -18.9753 -2.5037
rtoes -1.07175
lfemur -9.90367 -7.69707 -4.69173
ltibia 27.4833
lfoot 3.68673 2.52769
ltoes -14.4969
98
root 15.099 17.878 -5.1679 -45.3792 -85.6061 44.0064
lowerback 13.7078 2.32111 1.79476
upperback 0.205458 3.27815 -0.710181
thorax -7.33033 1.50327 -2.41033
lowerneck -23.5636 -0.994922 -9.05036
upperneck 29.6339 0.15661 5.05079
head 14.0551 -0.369293 3.59143
rclavicle -1.69712e-014 7.55382e-015
rhumerus -34.8165 -16.0949 -73.8115
rradius 33.2296
rwrist 4.42746
rhand -15.8488 8.19273
rfingers 7.12502
rthumb 10.3461 -21.5328
lclavicle -1.69712e-014 7.55382e-015
lhumerus -36.1403 17.3676 72.0862
lradius 28.7134
lwrist -8.35005
lhand -19.8439 22.9944
lfingers 7.12502
lthumb 6.4905 52.875
rfemur -1.68043 5.72805 12.8434
rtibia 26.6152
rfoot -19.0501 -2.5836
rtoes -0.872104
lfemur -9.36189 -8.85764 -4.00496
ltibia 26.4653
lfoot 4.39239 2.95138
ltoes -12.519
99
root 15.083 17.8663 -5.06542 -48.7414 -85.7273 47.3449
lowerback 13.6708 2.34906 1.7364
upperback 0.237453 3.30278 -0.732154
thorax -7.27596 1.51804 -2.40241
lowerneck -23.6886 -0.998639 -8.91393
upperneck 29.6642 0.185961 4.82801
head 14.0941 -0.373285 3.48478
rclavicle 3.27995e-015 1.59028e-015
rhumerus -34.7333 -15.7732 -73.7993
rradius 33.2603
rwrist 4.39726
rhand -15.999 8.12781
rfingers 7.12502
rthumb 10.2011 -21.6049
lclavicle 3.27995e-015 1.59028e-015
lhumerus -36.2368 17.3142 72.0919
lradius 28.6411
lwrist -8.37262
lhand -20.2053 23.2271
lfingers 7.12502
lthumb 6.14157 53.1181
rfemur -1.66927 5.92126 12.371
rtibia 26.6861
rfoot -19.1624 -2.46659
rtoes -0.999811
lfemur -8.81922 -9.4896 -3.71904
ltibia 25.5833
lfoot 4.90188 3.01025
ltoes -11.8956
100
root 15.0671 17.8522 -4.96365 -53.4821 -85.8436 52.0824
lowerback 13.6232 2.42614 1.54408
upperback 0.259425 3.37265 -0.743197
thorax -7.23261 1.55942 -2.31598
lowerneck -23.7091 -1.04101 -9.01723
upperneck 29.6674 0.131283 4.93381
head 14.1044 -0.393638 3.53626
rclavicle 3.92351e-014 -6.36111e-015
rhumerus -34.6874 -15.5388 -73.7539
rradius 33.2679
rwrist 4.38102
rhand -16.1912 7.96549
rfingers 7.12502
rthumb 10.0157 -21.7762
lclavicle 3.92351e-014 -6.36111e-015
lhumerus -36.2968 17.1909 72.1317
lradius 28.5563
lwrist -8.44187
lhand -20.1868 23.1938
lfingers 7.12502
lthumb 6.15944 53.0843
rfemur -1.68549 6.18173 11.8496
rtibia 26.7375
rfoot -19.2163 -2.35638
rtoes -1.35483
lfemur -8.3079 -9.62419 -3.4898
ltibia 24.7907
lfoot 5.34131 2.47496
ltoes -11.9337
101
root 15.0528 17.8369 -4.86141 -57.6031 -86.0012 56.1686
lowerback 13.6426 2.47623 1.50098
upperback 0.288463 3.42802 -0.786595
thorax -7.20958 1.5873 -2.34825
lowerneck -23.8184 -1.08101 -9.07461
upperneck 29.7362 0.0676337 5.0446
head 14.1629 -0.413574 3.58389
rclavicle -6.55989e-015 -4.37326e-015
rhumerus -34.6351 -15.2488 -73.8579
rradius 33.2414
rwrist 4.22111
rhand -16.3336 8.01051
rfingers 7.12502
rthumb 9.87836 -21.7377
lclavicle -6.55989e-015 -4.37326e-015
lhumerus -36.3333 17.3206 71.9429
lradius 28.4184
lwrist -8.96054
lhand -19.6357 22.7181
lfingers 7.12502
lthumb 6.69151 52.5924
rfemur -1.70297 6.30241 11.4364
rtibia 26.8117
rfoot -19.2516 -2.41797
rtoes -2.80646
lfemur -7.78753 -10.0853 -3.22342
ltibia 24.018
lfoot 5.77321 2.05006
ltoes -11.4163
